<svg xmlns="http://www.w3.org/2000/svg" viewBox="0 0 1000 1000"><defs><style>.cls-1{fill:#f2c3b1;}.cls-2{fill:#df5b5c;}.cls-3{fill:#701414;}.cls-4{fill:#344c54;}.cls-5{fill:#7ebaae;}</style></defs><g id="BG"><rect class="cls-1" width="1000" height="1000"/></g><g id="Layer_1" data-name="Layer 1"><path class="cls-2" d="M806.4,485.77V362.93a56.7,56.7,0,0,0-56.7-56.7,18.91,18.91,0,0,1-18.9-18.91v-37.8a18.9,18.9,0,0,1,18.9-18.89h9.45a18.9,18.9,0,0,0,18.9-18.9v-75.6a18.9,18.9,0,0,0-18.9-18.9H603.23a4.71,4.71,0,0,0-4.4,3h0L551.68,223.92h0a4.7,4.7,0,0,0,4.28,6.71H636.3a18.9,18.9,0,0,1,18.9,18.89v37.8a18.91,18.91,0,0,1-18.9,18.91h-378a56.7,56.7,0,0,0-56.7,56.7V485.77a75.61,75.61,0,0,0,0,151.21v170.1a56.7,56.7,0,0,0,56.7,56.69H749.7a56.7,56.7,0,0,0,56.7-56.69V637a75.61,75.61,0,0,0,0-151.21Z" transform="translate(0 0)"/><path class="cls-3" d="M525.51,516.64l-3.12,2.08A36.76,36.76,0,0,0,525.51,516.64Z" transform="translate(0 0)"/><path class="cls-3" d="M482.49,516.64a36.76,36.76,0,0,0,3.12,2.08Z" transform="translate(0 0)"/><path class="cls-4" d="M711.9,381.83H296.1a18.77,18.77,0,0,0-12.19,4.47l30.21,20.14L481.4,518l3.28,2.19a37.8,37.8,0,0,0,38.64,0L526.6,518,693.88,406.44,721.59,388l2.5-1.67A18.77,18.77,0,0,0,711.9,381.83Z" transform="translate(0 0)"/><path class="cls-5" d="M724.09,386.3l-2.5,1.67-27.71,18.47L526.6,518l-3.28,2.19a37.8,37.8,0,0,1-38.64,0L481.4,518,314.12,406.44,283.91,386.3a18.84,18.84,0,0,0-6.71,14.43V655.88a18.9,18.9,0,0,0,18.9,18.9H711.9a18.9,18.9,0,0,0,18.9-18.9V400.73A18.84,18.84,0,0,0,724.09,386.3Z" transform="translate(0 0)"/><rect class="cls-5" x="674.1" y="712.58" width="56.7" height="75.6" rx="18.9"/><rect class="cls-5" x="573.3" y="712.58" width="56.7" height="75.6" rx="18.9"/><rect class="cls-5" x="474.6" y="712.58" width="56.7" height="75.6" rx="18.9"/><rect class="cls-5" x="375.9" y="712.58" width="56.7" height="75.6" rx="18.9"/><rect class="cls-5" x="277.2" y="712.58" width="56.7" height="75.6" rx="18.9"/></g></svg>