<svg id="Layer_1" data-name="Layer 1" xmlns="http://www.w3.org/2000/svg" viewBox="0 0 256 256"><defs><style>.cls-1{fill:#f2c3b1;}.cls-2{fill:#df5b5c;}.cls-3{fill:#701414;}.cls-4{fill:#7ebaae;}.cls-5{fill:#344c54;}</style></defs><rect class="cls-1" width="256" height="256"/><path class="cls-2" d="M206.49,124.36V92.89A14.53,14.53,0,0,0,192,78.37a4.85,4.85,0,0,1-4.84-4.85V63.84A4.84,4.84,0,0,1,192,59h2.42a4.84,4.84,0,0,0,4.84-4.84V34.79A4.84,4.84,0,0,0,194.38,30H154.44a1.2,1.2,0,0,0-1.12.77h0L141.24,57.28h0a1.26,1.26,0,0,0-.11.51A1.21,1.21,0,0,0,142.34,59h20.57a4.84,4.84,0,0,1,4.84,4.84v9.68a4.84,4.84,0,0,1-4.84,4.85H66.09A14.53,14.53,0,0,0,51.56,92.89v31.47a19.37,19.37,0,0,0,0,38.73v43.57a14.53,14.53,0,0,0,14.53,14.52H192a14.53,14.53,0,0,0,14.53-14.52V163.09a19.37,19.37,0,0,0,0-38.73Z"/><path class="cls-3" d="M134.53,132.26l-.8.54A9.31,9.31,0,0,0,134.53,132.26Z"/><path class="cls-3" d="M123.51,132.26c.26.19.53.37.8.54Z"/><rect class="cls-4" x="70.93" y="182.45" width="14.52" height="19.37" rx="1.21"/><rect class="cls-4" x="172.6" y="182.45" width="14.52" height="19.37" rx="1.21"/><path class="cls-5" d="M182.28,97.73H75.77a4.77,4.77,0,0,0-3.12,1.15L80.38,104l42.86,28.57.84.56a9.67,9.67,0,0,0,9.89,0l.84-.56L177.66,104l7.1-4.73.64-.42A4.77,4.77,0,0,0,182.28,97.73Z"/><path class="cls-4" d="M185.4,98.88l-.64.42-7.1,4.73L134.81,132.6l-.84.56a9.67,9.67,0,0,1-9.89,0l-.84-.56L80.38,104l-7.73-5.15a4.81,4.81,0,0,0-1.72,3.69v65.36a4.84,4.84,0,0,0,4.84,4.84H182.28a4.84,4.84,0,0,0,4.84-4.84V102.57A4.81,4.81,0,0,0,185.4,98.88Z"/><rect class="cls-4" x="96.07" y="182.45" width="14.52" height="19.37" rx="1.21"/><rect class="cls-4" x="121.41" y="182.45" width="14.52" height="19.37" rx="1.21"/><rect class="cls-4" x="146.76" y="182.45" width="14.52" height="19.37" rx="1.21"/></svg>