<svg xmlns="http://www.w3.org/2000/svg" viewBox="0 0 1000 1000"><defs><style>.cls-1{fill:#f2c3b1;}.cls-2{fill:#df5b5c;}.cls-3{fill:#701414;}.cls-4{fill:#7ebaae;}.cls-5{fill:#344c54;}</style></defs><g id="BG"><rect class="cls-1" width="1000" height="1000"/></g><g id="Layer_1" data-name="Layer 1"><path class="cls-2" d="M806.58,467.77V344.85a56.73,56.73,0,0,0-56.73-56.74,18.9,18.9,0,0,1-18.91-18.91V231.38a18.91,18.91,0,0,1,18.91-18.91h9.45a18.92,18.92,0,0,0,18.92-18.91V117.91A18.92,18.92,0,0,0,759.3,99h-156a4.72,4.72,0,0,0-4.39,3h0L551.71,205.76h0a4.86,4.86,0,0,0-.44,2,4.73,4.73,0,0,0,4.73,4.73h80.37a18.91,18.91,0,0,1,18.91,18.91V269.2a18.91,18.91,0,0,1-18.91,18.91H258.15a56.73,56.73,0,0,0-56.73,56.74V467.77a75.65,75.65,0,1,0,0,151.29V789.27A56.73,56.73,0,0,0,258.15,846h491.7a56.73,56.73,0,0,0,56.73-56.73V619.06a75.65,75.65,0,1,0,0-151.29Z" transform="translate(0 0)"/><path class="cls-3" d="M525.52,498.65l-3.12,2.08A34.51,34.51,0,0,0,525.52,498.65Z" transform="translate(0 0)"/><path class="cls-3" d="M482.48,498.65a34.51,34.51,0,0,0,3.12,2.08Z" transform="translate(0 0)"/><rect class="cls-4" x="277.06" y="694.71" width="56.73" height="75.65" rx="4.73"/><rect class="cls-4" x="674.2" y="694.71" width="56.73" height="75.65" rx="4.73"/><path class="cls-5" d="M712,363.76H296a18.87,18.87,0,0,0-12.2,4.47L314,388.39,481.39,500l3.28,2.18a37.78,37.78,0,0,0,38.66,0l3.28-2.18L694,388.39l27.72-18.49,2.51-1.67A18.87,18.87,0,0,0,712,363.76Z" transform="translate(0 0)"/><path class="cls-4" d="M724.23,368.23l-2.51,1.67L694,388.39,526.61,500l-3.28,2.18a37.78,37.78,0,0,1-38.66,0L481.39,500,314,388.39l-30.23-20.16a18.87,18.87,0,0,0-6.71,14.44V638A18.92,18.92,0,0,0,296,656.89H712A18.92,18.92,0,0,0,730.94,638V382.67A18.87,18.87,0,0,0,724.23,368.23Z" transform="translate(0 0)"/><rect class="cls-4" x="375.27" y="694.71" width="56.73" height="75.65" rx="4.73"/><rect class="cls-4" x="474.27" y="694.71" width="56.73" height="75.65" rx="4.73"/><rect class="cls-4" x="573.27" y="694.71" width="56.73" height="75.65" rx="4.73"/></g></svg>